<svg width="33" height="33" viewBox="0 0 33 33" fill="none" xmlns="http://www.w3.org/2000/svg">
<g clip-path="url(#clip0_155_66)">
<path d="M21.821 9.17351C21.8485 8.72027 21.6171 8.29073 21.2232 8.06396C20.8293 7.83718 20.3405 7.85211 19.9606 8.10252L4.26251 18.4503C3.86479 18.7125 3.65961 19.1842 3.7395 19.6527C3.8194 20.1213 4.16927 20.4981 4.63133 20.6132L10.6902 22.1232C11.2104 22.2528 11.7542 22.0225 12.0227 21.5589L14.7715 16.8116C15.1036 16.238 15.8384 16.0411 16.4128 16.3718C16.9871 16.7024 17.1835 17.4354 16.8514 18.009L14.1026 22.7563C13.8342 23.2199 13.906 23.8046 14.2787 24.189L18.6196 28.6661C18.9507 29.0075 19.4529 29.1212 19.8998 28.9559C20.3467 28.7907 20.6538 28.3776 20.6826 27.9031L21.821 9.17351Z" fill="white"/>
</g>
<defs>
<clipPath id="clip0_155_66">
<rect width="24" height="24" fill="white" transform="matrix(0.86665 0.498916 -0.501084 0.865398 12.026 0)"/>
</clipPath>
</defs>
</svg>
