<svg width="41" height="17" viewBox="0 0 41 17" fill="none" xmlns="http://www.w3.org/2000/svg">
<path d="M3.06716 12.6504C3.2224 13.1802 3.77791 13.4833 4.30793 13.3273L12.9452 10.7857C13.4752 10.6298 13.7791 10.0739 13.6238 9.54406C13.4686 9.01426 12.9131 8.71121 12.3831 8.86717L4.70548 11.1263L2.45687 3.45206C2.30164 2.92226 1.74613 2.61921 1.2161 2.77517C0.686075 2.93114 0.382247 3.48706 0.537479 4.01686L3.06716 12.6504ZM40.376 15.3227C35.5381 7.85834 30.8665 3.65742 26.4879 1.68272C22.0732 -0.30829 18.0489 0.00629286 14.6485 1.3784C11.2809 2.73727 8.54965 5.12011 6.6088 7.25001C4.66599 9.38206 3.45916 11.3228 3.1495 11.8894L4.90422 12.8467C5.1409 12.4136 6.25601 10.6045 8.08628 8.59594C9.9185 6.58525 12.4114 4.43674 15.3947 3.23293C18.3452 2.04237 21.7985 1.76295 25.6636 3.50605C29.5648 5.26547 33.9753 9.12677 38.6972 16.4121L40.376 15.3227Z" fill="white"/>
</svg>
