<svg width="24" height="24" viewBox="0 0 24 24" fill="none" xmlns="http://www.w3.org/2000/svg">
<path d="M11.9999 4.35416C12.7328 3.52374 13.8052 2.99998 14.9999 2.99998C17.209 2.99998 18.9999 4.79085 18.9999 6.99998C18.9999 9.20912 17.209 11 14.9999 11C13.8052 11 12.7328 10.4762 11.9999 9.64581M14.9999 21L2.99988 21L2.99988 20C2.99988 16.6863 5.68617 14 8.99988 14C12.3136 14 14.9999 16.6863 14.9999 20L14.9999 21ZM14.9999 21L20.9999 21L20.9999 20C20.9999 16.6863 18.3136 14 14.9999 14C13.907 14 12.8824 14.2922 11.9999 14.8027M12.9999 6.99998C12.9999 9.20912 11.209 11 8.99988 11C6.79074 11 4.99988 9.20912 4.99988 6.99998C4.99988 4.79085 6.79074 2.99998 8.99988 2.99998C11.209 2.99998 12.9999 4.79085 12.9999 6.99998Z" stroke="#07014C" stroke-width="2" stroke-linecap="round" stroke-linejoin="round"/>
</svg>
