<svg width="20" height="20" viewBox="0 0 20 20" fill="none" xmlns="http://www.w3.org/2000/svg">
<path d="M9 8.99998L9 6.99998C9 5.89542 8.10457 4.99998 7 4.99998M9 8.99998L9 13C9 14.1046 9.89543 15 11 15C12.1046 15 13 14.1046 13 13L13 12M9 8.99998L7 8.99998M9 8.99998L13 8.99998M19 9.99998C19 14.9705 14.9706 19 10 19C5.02944 19 1 14.9705 1 9.99998C1 5.02942 5.02944 0.999985 10 0.999985C14.9706 0.999985 19 5.02942 19 9.99998Z" stroke="#07014C" stroke-width="2" stroke-linecap="round" stroke-linejoin="round"/>
</svg>
