<svg width="21" height="21" viewBox="0 0 21 21" fill="none" xmlns="http://www.w3.org/2000/svg">
<path d="M10.5052 2.56964C11.238 1.74165 12.3101 1.21947 13.5047 1.21953C15.7135 1.21965 17.5042 3.00544 17.5043 5.20821C17.5044 7.41097 15.7139 9.19658 13.5051 9.19646C12.3105 9.1964 11.2383 8.67409 10.5054 7.84603M13.5056 19.1676L1.50725 19.167L1.5072 18.1699C1.50703 14.8657 4.19281 12.1873 7.50606 12.1875C10.8193 12.1877 13.5054 14.8664 13.5055 18.1705L13.5056 19.1676ZM13.5056 19.1676L19.5047 19.1679L19.5047 18.1708C19.5045 14.8667 16.8185 12.188 13.5052 12.1878C12.4125 12.1878 11.3881 12.479 10.5057 12.988M11.5052 5.20789C11.5053 7.41066 9.71474 9.19626 7.50591 9.19614C5.29708 9.19603 3.50638 7.41024 3.50627 5.20747C3.50616 3.0047 5.29668 1.2191 7.50551 1.21921C9.71434 1.21933 11.505 3.00512 11.5052 5.20789Z" stroke="white" stroke-width="2" stroke-linecap="round" stroke-linejoin="round"/>
</svg>
