<svg width="24" height="24" viewBox="0 0 24 24" fill="none" xmlns="http://www.w3.org/2000/svg">
<path d="M4.00012 12L6.00012 9.99999M6.00012 9.99999L13.0001 2.99999L20.0001 9.99999M6.00012 9.99999L6.00012 12.5L6.00012 20C6.00012 20.5523 6.44784 21 7.00012 21L10.0001 21M20.0001 9.99999L22.0001 12M20.0001 9.99999L20.0001 12.5L20.0001 20C20.0001 20.5523 19.5524 21 19.0001 21L16.0001 21M10.0001 21C10.5524 21 11.0001 20.5523 11.0001 20L11.0001 16C11.0001 15.4477 11.4478 15 12.0001 15L14.0001 15C14.5524 15 15.0001 15.4477 15.0001 16L15.0001 20C15.0001 20.5523 15.4478 21 16.0001 21M10.0001 21L16.0001 21" stroke="#07014C" stroke-width="2" stroke-linecap="round" stroke-linejoin="round"/>
</svg>
