<svg width="16" height="16" viewBox="0 0 16 16" fill="none" xmlns="http://www.w3.org/2000/svg">
<path fill-rule="evenodd" clip-rule="evenodd" d="M0.940124 4.4124C0.355361 4.77788 0.00012207 5.41882 0.00012207 6.1084L0.000122069 13.9999C0.000122069 15.1045 0.895553 15.9999 2.00012 15.9999L14.0001 15.9999C15.1047 15.9999 16.0001 15.1045 16.0001 13.9999L16.0001 6.1084C16.0001 5.41882 15.6449 4.77788 15.0601 4.4124L9.06012 0.662402C8.41158 0.257064 7.58867 0.257064 6.94012 0.662402L0.940124 4.4124ZM3.55482 6.83462C3.09529 6.52826 2.47442 6.65244 2.16807 7.11197C1.86172 7.5715 1.98589 8.19236 2.44542 8.49872L7.44542 11.8321C7.78132 12.056 8.21892 12.056 8.55482 11.8321L13.5548 8.49872C14.0144 8.19236 14.1385 7.5715 13.8322 7.11197C13.5258 6.65244 12.905 6.52826 12.4454 6.83462L8.00012 9.79815L3.55482 6.83462Z" fill="white"/>
</svg>
