<svg width="32" height="33" viewBox="0 0 32 33" fill="none" xmlns="http://www.w3.org/2000/svg">
<path d="M3.99524 4.27121L6.66191 4.27121L7.19524 6.93788M9.32857 17.6045L22.6619 17.6045L27.9952 6.93788L7.19524 6.93788M9.32857 17.6045L7.19524 6.93788M9.32857 17.6045L6.27138 20.6617C5.43143 21.5017 6.02632 22.9379 7.21419 22.9379L22.6619 22.9379M22.6619 22.9379C21.1891 22.9379 19.9952 24.1318 19.9952 25.6045C19.9952 27.0773 21.1891 28.2712 22.6619 28.2712C24.1347 28.2712 25.3286 27.0773 25.3286 25.6045C25.3286 24.1318 24.1347 22.9379 22.6619 22.9379ZM11.9952 25.6045C11.9952 27.0773 10.8013 28.2712 9.32857 28.2712C7.85581 28.2712 6.66191 27.0773 6.66191 25.6045C6.66191 24.1318 7.85581 22.9379 9.32857 22.9379C10.8013 22.9379 11.9952 24.1318 11.9952 25.6045Z" stroke="#E69861" stroke-width="3" stroke-linecap="round" stroke-linejoin="round"/>
</svg>
