<svg width="16" height="19" viewBox="0 0 16 19" fill="none" xmlns="http://www.w3.org/2000/svg">
<path d="M15.1585 1.65794C15.1812 1.27985 14.9883 0.921384 14.6603 0.731998C14.3322 0.542612 13.9254 0.554812 13.6093 0.763512L0.547104 9.38786C0.216164 9.60637 0.0456114 9.99979 0.112362 10.3907C0.179112 10.7816 0.470552 11.0961 0.855247 11.1924L5.89965 12.4553C6.33276 12.5637 6.78528 12.3719 7.00852 11.9852L9.29423 8.02622C9.57038 7.54793 10.182 7.38405 10.6603 7.66019C11.1386 7.93634 11.3024 8.54792 11.0263 9.02622L8.74057 12.9852C8.51733 13.3719 8.57746 13.8597 8.88792 14.1805L12.5038 17.9177C12.7795 18.2027 13.1976 18.2978 13.5695 18.1602C13.9415 18.0226 14.1969 17.6781 14.2206 17.2823L15.1585 1.65794Z" fill="white"/>
</svg>
