<svg width="38" height="17" viewBox="0 0 38 17" fill="none" xmlns="http://www.w3.org/2000/svg">
<path d="M3.07083 12.7949C3.2454 13.3189 3.81168 13.6021 4.33565 13.4275L12.8742 10.5827C13.3982 10.4082 13.6814 9.84189 13.5069 9.31793C13.3323 8.79396 12.766 8.51071 12.242 8.68528L4.6522 11.214L2.1235 3.62415C1.94893 3.10018 1.38265 2.81694 0.858683 2.99151C0.334713 3.16608 0.0514678 3.73236 0.22604 4.25633L3.07083 12.7949ZM37.3796 15.469C32.9554 8.01102 28.6747 3.79641 24.6413 1.8088C20.5587 -0.203005 16.8254 0.11449 13.6787 1.50174C10.5738 2.87055 8.0657 5.265 6.29066 7.39337C4.51145 9.52674 3.40743 11.4672 3.1252 12.0315L4.91392 12.9262C5.13171 12.4907 6.15269 10.6814 7.82661 8.67433C9.5047 6.66221 11.7778 4.52547 14.4855 3.33179C17.1513 2.15654 20.2617 1.88026 23.7572 3.6028C27.3019 5.34955 31.3337 9.19742 35.6595 16.4894L37.3796 15.469Z" fill="white"/>
</svg>
