<?xml version="1.0" standalone="no"?>
<!DOCTYPE svg PUBLIC "-//W3C//DTD SVG 20010904//EN"
 "http://www.w3.org/TR/2001/REC-SVG-20010904/DTD/svg10.dtd">
<svg version="1.0" xmlns="http://www.w3.org/2000/svg"
 width="512.000000pt" height="512.000000pt" viewBox="0 0 512.000000 512.000000"
 preserveAspectRatio="xMidYMid meet">

<g transform="translate(0.000000,512.000000) scale(0.100000,-0.100000)"
fill="#000000" stroke="none">
<path d="M3535 3956 c-27 -7 -70 -23 -95 -35 -32 -16 -245 -223 -721 -700
l-676 -676 -117 -438 c-86 -318 -116 -445 -111 -467 8 -36 48 -70 84 -70 14 0
209 49 433 110 224 60 420 110 435 110 24 0 133 105 709 683 780 781 739 731
739 897 0 147 -17 177 -223 381 -146 145 -174 169 -224 187 -74 28 -169 35
-233 18z m153 -191 c45 -19 295 -264 323 -317 38 -73 16 -158 -61 -233 l-40
-39 -243 242 -242 243 50 46 c80 73 137 89 213 58z m-153 -485 l240 -240 -513
-513 -512 -512 -242 243 -243 242 510 510 c280 280 512 510 515 510 3 0 113
-108 245 -240z m-993 -1341 c-7 -7 -495 -140 -498 -136 -1 2 99 376 126 471
l12 39 184 -184 c101 -101 180 -186 176 -190z"/>
<path d="M2977 2862 l-297 -297 68 -68 67 -67 300 300 300 300 -65 65 c-35 36
-67 65 -70 65 -3 0 -139 -134 -303 -298z"/>
<path d="M1151 3861 c-13 -3 -34 -19 -45 -34 l-21 -28 -3 -1357 c-2 -746 0
-1376 3 -1399 4 -25 16 -51 32 -67 l26 -26 1351 2 1351 3 67 33 c81 40 148
110 180 190 l23 57 3 688 3 687 -96 0 -95 0 0 -662 c0 -746 3 -715 -76 -774
l-37 -29 -1269 -3 -1268 -2 0 1270 0 1270 815 0 815 0 0 95 0 95 -867 -1
c-478 -1 -879 -4 -892 -8z"/>
</g>
</svg>
